<svg width="100" height="100" viewBox="0 0 100 100" fill="none" xmlns="http://www.w3.org/2000/svg">
<g clip-path="url(#clip0_14_138)">
<rect width="100" height="100" rx="16" fill="#4A3780"/>
<path d="M21.4545 44.196V41.5455H35.3807V44.196H29.9858V59H26.8494V44.196H21.4545ZM41.7408 59.2557C40.4624 59.2557 39.3544 58.9744 38.4169 58.4119C37.4794 57.8494 36.7521 57.0625 36.2351 56.0511C35.7237 55.0398 35.468 53.858 35.468 52.5057C35.468 51.1534 35.7237 49.9687 36.2351 48.9517C36.7521 47.9347 37.4794 47.1449 38.4169 46.5824C39.3544 46.0199 40.4624 45.7386 41.7408 45.7386C43.0192 45.7386 44.1271 46.0199 45.0646 46.5824C46.0021 47.1449 46.7266 47.9347 47.2379 48.9517C47.755 49.9687 48.0135 51.1534 48.0135 52.5057C48.0135 53.858 47.755 55.0398 47.2379 56.0511C46.7266 57.0625 46.0021 57.8494 45.0646 58.4119C44.1271 58.9744 43.0192 59.2557 41.7408 59.2557ZM41.7578 56.7841C42.451 56.7841 43.0305 56.5937 43.4964 56.2131C43.9624 55.8267 44.3089 55.3097 44.5362 54.6619C44.7692 54.0142 44.8857 53.2926 44.8857 52.4972C44.8857 51.696 44.7692 50.9716 44.5362 50.3239C44.3089 49.6705 43.9624 49.1506 43.4964 48.7642C43.0305 48.3778 42.451 48.1847 41.7578 48.1847C41.0476 48.1847 40.4567 48.3778 39.9851 48.7642C39.5192 49.1506 39.1697 49.6705 38.9368 50.3239C38.7095 50.9716 38.5959 51.696 38.5959 52.4972C38.5959 53.2926 38.7095 54.0142 38.9368 54.6619C39.1697 55.3097 39.5192 55.8267 39.9851 56.2131C40.4567 56.5937 41.0476 56.7841 41.7578 56.7841ZM55.4901 59.2301C54.4616 59.2301 53.5412 58.9659 52.7287 58.4375C51.9162 57.9091 51.2741 57.142 50.8026 56.1364C50.331 55.1307 50.0952 53.9091 50.0952 52.4716C50.0952 51.017 50.3338 49.7898 50.8111 48.7898C51.294 47.7841 51.9446 47.0256 52.7628 46.5142C53.581 45.9972 54.4929 45.7386 55.4986 45.7386C56.2656 45.7386 56.8963 45.8693 57.3906 46.1307C57.8849 46.3864 58.277 46.696 58.5668 47.0597C58.8565 47.4176 59.081 47.7557 59.2401 48.0739H59.3679V41.5455H62.4616V59H59.4276V56.9375H59.2401C59.081 57.2557 58.8509 57.5937 58.5497 57.9517C58.2486 58.304 57.8509 58.6051 57.3565 58.8551C56.8622 59.1051 56.2401 59.2301 55.4901 59.2301ZM56.3509 56.6989C57.0043 56.6989 57.5611 56.5227 58.0213 56.1705C58.4815 55.8125 58.831 55.3153 59.0696 54.679C59.3082 54.0426 59.4276 53.3011 59.4276 52.4545C59.4276 51.608 59.3082 50.8722 59.0696 50.2472C58.8366 49.6222 58.4901 49.1364 58.0298 48.7898C57.5753 48.4432 57.0156 48.2699 56.3509 48.2699C55.6634 48.2699 55.0895 48.4489 54.6293 48.8068C54.169 49.1648 53.8224 49.6591 53.5895 50.2898C53.3565 50.9205 53.2401 51.642 53.2401 52.4545C53.2401 53.2727 53.3565 54.0028 53.5895 54.6449C53.8281 55.2812 54.1776 55.7841 54.6378 56.1534C55.1037 56.517 55.6747 56.6989 56.3509 56.6989ZM71.4595 59.2557C70.1811 59.2557 69.0732 58.9744 68.1357 58.4119C67.1982 57.8494 66.4709 57.0625 65.9538 56.0511C65.4425 55.0398 65.1868 53.858 65.1868 52.5057C65.1868 51.1534 65.4425 49.9687 65.9538 48.9517C66.4709 47.9347 67.1982 47.1449 68.1357 46.5824C69.0732 46.0199 70.1811 45.7386 71.4595 45.7386C72.7379 45.7386 73.8459 46.0199 74.7834 46.5824C75.7209 47.1449 76.4453 47.9347 76.9567 48.9517C77.4737 49.9687 77.7322 51.1534 77.7322 52.5057C77.7322 53.858 77.4737 55.0398 76.9567 56.0511C76.4453 57.0625 75.7209 57.8494 74.7834 58.4119C73.8459 58.9744 72.7379 59.2557 71.4595 59.2557ZM71.4766 56.7841C72.1697 56.7841 72.7493 56.5937 73.2152 56.2131C73.6811 55.8267 74.0277 55.3097 74.255 54.6619C74.4879 54.0142 74.6044 53.2926 74.6044 52.4972C74.6044 51.696 74.4879 50.9716 74.255 50.3239C74.0277 49.6705 73.6811 49.1506 73.2152 48.7642C72.7493 48.3778 72.1697 48.1847 71.4766 48.1847C70.7663 48.1847 70.1754 48.3778 69.7038 48.7642C69.2379 49.1506 68.8885 49.6705 68.6555 50.3239C68.4283 50.9716 68.3146 51.696 68.3146 52.4972C68.3146 53.2926 68.4283 54.0142 68.6555 54.6619C68.8885 55.3097 69.2379 55.8267 69.7038 56.2131C70.1754 56.5937 70.7663 56.7841 71.4766 56.7841Z" fill="white"/>
<g style="mix-blend-mode:lighten" opacity="0.7">
<circle cx="6" cy="91" r="22" stroke="url(#paint0_linear_14_138)" stroke-opacity="0.17" stroke-width="26"/>
</g>
<g style="mix-blend-mode:lighten" opacity="0.7">
<circle cx="94" cy="20" r="17.5" stroke="url(#paint1_linear_14_138)" stroke-opacity="0.17" stroke-width="15"/>
</g>
</g>
<defs>
<linearGradient id="paint0_linear_14_138" x1="6" y1="56" x2="4.77193" y2="97.345" gradientUnits="userSpaceOnUse">
<stop offset="0.0001" stop-color="white" stop-opacity="0.97"/>
<stop offset="0.0002" stop-color="white" stop-opacity="0.77"/>
<stop offset="1" stop-color="white" stop-opacity="0"/>
<stop offset="1" stop-color="white" stop-opacity="0"/>
</linearGradient>
<linearGradient id="paint1_linear_14_138" x1="94" y1="-5" x2="94" y2="45" gradientUnits="userSpaceOnUse">
<stop stop-color="white"/>
<stop offset="1" stop-color="white" stop-opacity="0"/>
<stop offset="1" stop-color="white" stop-opacity="0"/>
</linearGradient>
<clipPath id="clip0_14_138">
<rect width="100" height="100" rx="16" fill="white"/>
</clipPath>
</defs>
</svg>
